<?xml version="1.0" standalone="no"?>
<!DOCTYPE svg PUBLIC "-//W3C//DTD SVG 20010904//EN"
 "http://www.w3.org/TR/2001/REC-SVG-20010904/DTD/svg10.dtd">
<svg version="1.0" xmlns="http://www.w3.org/2000/svg"
 width="55.653831pt" height="47.937507pt" viewBox="0 0 55.653831 47.937507"
 preserveAspectRatio="xMidYMid meet">
<metadata>
Created by potrace 1.12, written by Peter Selinger 2001-2015
</metadata>
<g transform="translate(-4.189187,56.934493) scale(0.100000,-0.100000)"
fill="#E8B269" stroke="none">
<path d="M226 554 c-70 -22 -149 -103 -170 -174 -28 -94 -14 -187 39 -255 l26
-35 198 0 c222 0 209 -4 251 79 92 183 -49 404 -254 400 -23 0 -63 -7 -90 -15z
m168 -36 c55 -16 138 -99 154 -154 22 -76 12 -146 -31 -207 -28 -40 -44 -20
-19 24 11 19 22 46 26 61 5 24 3 28 -19 34 -32 8 -32 20 0 28 22 6 24 10 19
34 -12 48 -34 84 -50 78 -8 -3 -22 -9 -31 -13 -13 -5 -15 -3 -10 10 4 9 10 23
13 31 6 16 -30 38 -78 50 -24 5 -28 3 -34 -19 -3 -14 -10 -25 -14 -25 -4 0
-11 11 -14 25 -6 22 -10 24 -34 19 -69 -17 -97 -45 -70 -72 17 -17 0 -28 -22
-14 -11 7 -22 12 -25 12 -7 0 -31 -51 -39 -82 -5 -24 -3 -28 19 -34 32 -8 32
-20 0 -28 -22 -6 -24 -10 -19 -34 4 -15 15 -42 26 -61 25 -44 9 -64 -19 -24
-68 97 -56 211 32 298 70 71 145 90 239 63z m-17 -191 c-13 -18 -27 -40 -30
-50 -10 -26 -51 -19 -55 10 -2 16 5 26 32 38 19 9 40 23 47 31 23 28 28 2 6
-29z m53 -162 c0 -12 -19 -15 -110 -15 -115 0 -153 16 -52 23 141 9 162 8 162
-8z"/>
</g>
</svg>
