<svg version="1.0" xmlns="http://www.w3.org/2000/svg" width="74.205" height="63.917" viewBox="0 0 55.654 47.938"><path d="M18.41 1.534c-7 2.2-14.9 10.3-17 17.4-2.8 9.4-1.4 18.7 3.9 25.5l2.6 3.5h19.8c22.2 0 20.9.4 25.1-7.9 9.2-18.3-4.9-40.4-25.4-40-2.3 0-6.3.7-9 1.5zm16.8 3.6c5.5 1.6 13.8 9.9 15.4 15.4 2.2 7.6 1.2 14.6-3.1 20.7-2.8 4-4.4 2-1.9-2.4 1.1-1.9 2.2-4.6 2.6-6.1.5-2.4.3-2.8-1.9-3.4-3.2-.8-3.2-2 0-2.8 2.2-.6 2.4-1 1.9-3.4-1.2-4.8-3.4-8.4-5-7.8-.8.3-2.2.9-3.1 1.3-1.3.5-1.5.3-1-1 .4-.9 1-2.3 1.3-3.1.6-1.6-3-3.8-7.8-5-2.4-.5-2.8-.3-3.4 1.9-.3 1.4-1 2.5-1.4 2.5-.4 0-1.1-1.1-1.4-2.5-.6-2.2-1-2.4-3.4-1.9-6.9 1.7-9.7 4.5-7 7.2 1.7 1.7 0 2.8-2.2 1.4-1.1-.7-2.2-1.2-2.5-1.2-.7 0-3.1 5.1-3.9 8.2-.5 2.4-.3 2.8 1.9 3.4 3.2.8 3.2 2 0 2.8-2.2.6-2.4 1-1.9 3.4.4 1.5 1.5 4.2 2.6 6.1 2.5 4.4.9 6.4-1.9 2.4-6.8-9.7-5.6-21.1 3.2-29.8 7-7.1 14.5-9 23.9-6.3zm-1.7 19.1c-1.3 1.8-2.7 4-3 5-1 2.6-5.1 1.9-5.5-1-.2-1.6.5-2.6 3.2-3.8 1.9-.9 4-2.3 4.7-3.1 2.3-2.8 2.8-.2.6 2.9zm5.3 16.2c0 1.2-1.9 1.5-11 1.5-11.5 0-15.3-1.6-5.2-2.3 14.1-.9 16.2-.8 16.2.8z" fill="#E8B269"/></svg>