<?xml version="1.0" encoding="utf-8"?><svg xmlns="http://www.w3.org/2000/svg" xmlns:xlink="http://www.w3.org/1999/xlink"><symbol viewBox="0 0 24 24" id="arrow" xmlns="http://www.w3.org/2000/svg"><path d="M22.78 17.91c.16.25.22.51.22.79 0 .38-.13.69-.43.94s-.63.36-1.01.36h-2.48L12.42 8h-.84L4.92 20H2.39c-.47 0-.86-.2-1.17-.62-.31-.42-.33-.88-.05-1.38l9.61-16.31C11.09 1.22 11.5 1 12 1c.53 0 .92.22 1.17.69l9.61 16.22m-18 4.4L12 9.38l7.22 12.93-.72.69-6.5-2.66L5.44 23l-.66-.69z"/></symbol><symbol viewBox="0 0 32.027 32.027" id="arrow-left" xmlns="http://www.w3.org/2000/svg"><path d="M16.307 16.734a.993.993 0 01-.293-.707c0-.27.104-.52.291-.705l8.537-8.494A3.975 3.975 0 0026.014 4a3.976 3.976 0 00-1.172-2.828C24.086.416 23.082 0 22.014 0s-2.072.416-2.816 1.16L7.479 12.492a4.967 4.967 0 00-1.465 3.535c0 1.336.521 2.592 1.479 3.551l10.083 9.671 1.606 1.606c.756.756 1.761 1.172 2.828 1.172s2.073-.416 2.828-1.172c.756-.756 1.172-1.761 1.172-2.828s-.416-2.072-1.174-2.832l-8.529-8.461zm7.121 12.707c-.756.756-2.074.756-2.83 0L8.893 18.148a2.978 2.978 0 01-.879-2.121c0-.802.312-1.555.867-2.109L20.599 2.586A1.984 1.984 0 0122.014 2a1.99 1.99 0 011.414.586c.377.378.586.88.586 1.414s-.209 1.036-.584 1.412l-8.537 8.494a2.98 2.98 0 00-.879 2.121c0 .801.312 1.555.882 2.123l8.532 8.463c.377.378.586.881.586 1.414a1.99 1.99 0 01-.586 1.414z"/></symbol></svg>